<mxfile host="app.diagrams.net" modified="2024-07-16T13:30:14.322Z" agent="Mozilla/5.0 (Windows NT 10.0; Win64; x64) AppleWebKit/537.36 (KHTML, like Gecko) Chrome/126.0.0.0 Safari/537.36" etag="GbIlRwE8RIMkxnQavbsY" version="24.6.5" type="device">
  <diagram name="Strona-1" id="7pJxQGB2yLErfSxrntiA">
    <mxGraphModel dx="838" dy="2045" grid="1" gridSize="10" guides="1" tooltips="1" connect="1" arrows="1" fold="1" page="1" pageScale="1" pageWidth="827" pageHeight="1169" math="0" shadow="0">
      <root>
        <mxCell id="0" />
        <mxCell id="1" parent="0" />
        <mxCell id="J2IZI90gLwu79yyHSFu_-3" value="capstone_project" style="points=[[0,0],[0.25,0],[0.5,0],[0.75,0],[1,0],[1,0.25],[1,0.5],[1,0.75],[1,1],[0.75,1],[0.5,1],[0.25,1],[0,1],[0,0.75],[0,0.5],[0,0.25]];outlineConnect=0;gradientColor=none;html=1;whiteSpace=wrap;fontSize=12;fontStyle=0;container=1;pointerEvents=0;collapsible=0;recursiveResize=0;shape=mxgraph.aws4.group;grIcon=mxgraph.aws4.group_vpc2;strokeColor=#8C4FFF;fillColor=none;verticalAlign=top;align=left;spacingLeft=30;fontColor=#AAB7B8;dashed=0;" parent="1" vertex="1">
          <mxGeometry x="300" y="-363.83" width="360" height="330" as="geometry" />
        </mxCell>
        <mxCell id="EbB28qM2xZXy4Wt4z2bn-22" value="private_a" style="points=[[0,0],[0.25,0],[0.5,0],[0.75,0],[1,0],[1,0.25],[1,0.5],[1,0.75],[1,1],[0.75,1],[0.5,1],[0.25,1],[0,1],[0,0.75],[0,0.5],[0,0.25]];outlineConnect=0;gradientColor=none;html=1;whiteSpace=wrap;fontSize=12;fontStyle=0;container=1;pointerEvents=0;collapsible=0;recursiveResize=0;shape=mxgraph.aws4.group;grIcon=mxgraph.aws4.group_security_group;grStroke=0;strokeColor=#00A4A6;fillColor=#E6F6F7;verticalAlign=top;align=left;spacingLeft=30;fontColor=#147EBA;dashed=0;" parent="J2IZI90gLwu79yyHSFu_-3" vertex="1">
          <mxGeometry x="20" y="30" width="230" height="130" as="geometry" />
        </mxCell>
        <mxCell id="EbB28qM2xZXy4Wt4z2bn-69" value="" style="outlineConnect=0;dashed=0;verticalLabelPosition=bottom;verticalAlign=top;align=center;html=1;shape=mxgraph.aws3.ec2;fillColor=#F58534;gradientColor=none;" parent="EbB28qM2xZXy4Wt4z2bn-22" vertex="1">
          <mxGeometry x="40" y="84.49999999999999" width="40" height="40" as="geometry" />
        </mxCell>
        <mxCell id="EbB28qM2xZXy4Wt4z2bn-70" value="Agent" style="text;html=1;align=center;verticalAlign=middle;whiteSpace=wrap;rounded=0;" parent="EbB28qM2xZXy4Wt4z2bn-22" vertex="1">
          <mxGeometry x="80" y="89.5" width="40" height="30" as="geometry" />
        </mxCell>
        <mxCell id="EbB28qM2xZXy4Wt4z2bn-71" value="" style="outlineConnect=0;dashed=0;verticalLabelPosition=bottom;verticalAlign=top;align=center;html=1;shape=mxgraph.aws3.ec2;fillColor=#F58534;gradientColor=none;" parent="EbB28qM2xZXy4Wt4z2bn-22" vertex="1">
          <mxGeometry x="40" y="33.829999999999984" width="40" height="40" as="geometry" />
        </mxCell>
        <mxCell id="EbB28qM2xZXy4Wt4z2bn-72" value="App" style="text;html=1;align=center;verticalAlign=middle;whiteSpace=wrap;rounded=0;" parent="EbB28qM2xZXy4Wt4z2bn-22" vertex="1">
          <mxGeometry x="80" y="38.83" width="30" height="30" as="geometry" />
        </mxCell>
        <mxCell id="EbB28qM2xZXy4Wt4z2bn-23" value="private_b" style="points=[[0,0],[0.25,0],[0.5,0],[0.75,0],[1,0],[1,0.25],[1,0.5],[1,0.75],[1,1],[0.75,1],[0.5,1],[0.25,1],[0,1],[0,0.75],[0,0.5],[0,0.25]];outlineConnect=0;gradientColor=none;html=1;whiteSpace=wrap;fontSize=12;fontStyle=0;container=1;pointerEvents=0;collapsible=0;recursiveResize=0;shape=mxgraph.aws4.group;grIcon=mxgraph.aws4.group_security_group;grStroke=0;strokeColor=#00A4A6;fillColor=#E6F6F7;verticalAlign=top;align=left;spacingLeft=30;fontColor=#147EBA;dashed=0;" parent="J2IZI90gLwu79yyHSFu_-3" vertex="1">
          <mxGeometry x="20" y="173.83" width="230" height="130" as="geometry" />
        </mxCell>
        <mxCell id="EbB28qM2xZXy4Wt4z2bn-73" value="" style="outlineConnect=0;dashed=0;verticalLabelPosition=bottom;verticalAlign=top;align=center;html=1;shape=mxgraph.aws3.ec2;fillColor=#F58534;gradientColor=none;" parent="EbB28qM2xZXy4Wt4z2bn-23" vertex="1">
          <mxGeometry x="40" y="44.99999999999997" width="40" height="40" as="geometry" />
        </mxCell>
        <mxCell id="EbB28qM2xZXy4Wt4z2bn-74" value="App" style="text;html=1;align=center;verticalAlign=middle;whiteSpace=wrap;rounded=0;" parent="EbB28qM2xZXy4Wt4z2bn-23" vertex="1">
          <mxGeometry x="80" y="50" width="30" height="30" as="geometry" />
        </mxCell>
        <mxCell id="2Ds7E1dafqhTQAd6MZnV-1" value="" style="outlineConnect=0;dashed=0;verticalLabelPosition=bottom;verticalAlign=top;align=center;html=1;shape=mxgraph.aws3.application_load_balancer;fillColor=#F58534;gradientColor=none;" parent="J2IZI90gLwu79yyHSFu_-3" vertex="1">
          <mxGeometry x="260" y="140" width="50" height="50" as="geometry" />
        </mxCell>
        <mxCell id="EbB28qM2xZXy4Wt4z2bn-75" value="" style="endArrow=none;dashed=1;html=1;rounded=0;exitX=0.5;exitY=1;exitDx=0;exitDy=0;exitPerimeter=0;entryX=1;entryY=0.5;entryDx=0;entryDy=0;" parent="J2IZI90gLwu79yyHSFu_-3" source="EbB28qM2xZXy4Wt4z2bn-26" target="EbB28qM2xZXy4Wt4z2bn-74" edge="1">
          <mxGeometry width="50" height="50" relative="1" as="geometry">
            <mxPoint x="250" y="163.82999999999998" as="sourcePoint" />
            <mxPoint x="130" y="238.82999999999998" as="targetPoint" />
            <Array as="points">
              <mxPoint x="210" y="238.82999999999998" />
            </Array>
          </mxGeometry>
        </mxCell>
        <mxCell id="EbB28qM2xZXy4Wt4z2bn-81" value="" style="endArrow=none;dashed=1;html=1;rounded=0;exitX=0;exitY=0.5;exitDx=0;exitDy=0;exitPerimeter=0;entryX=1;entryY=0.5;entryDx=0;entryDy=0;" parent="J2IZI90gLwu79yyHSFu_-3" source="2Ds7E1dafqhTQAd6MZnV-1" target="EbB28qM2xZXy4Wt4z2bn-22" edge="1">
          <mxGeometry width="50" height="50" relative="1" as="geometry">
            <mxPoint x="250" y="163.82999999999998" as="sourcePoint" />
            <mxPoint x="300" y="113.82999999999998" as="targetPoint" />
            <Array as="points">
              <mxPoint x="260" y="94.82999999999998" />
            </Array>
          </mxGeometry>
        </mxCell>
        <mxCell id="EbB28qM2xZXy4Wt4z2bn-26" value="" style="outlineConnect=0;dashed=0;verticalLabelPosition=bottom;verticalAlign=top;align=center;html=1;shape=mxgraph.aws3.rds;fillColor=#2E73B8;gradientColor=none;" parent="J2IZI90gLwu79yyHSFu_-3" vertex="1">
          <mxGeometry x="190" y="145.5" width="39" height="39" as="geometry" />
        </mxCell>
        <mxCell id="EbB28qM2xZXy4Wt4z2bn-76" value="" style="endArrow=none;dashed=1;html=1;rounded=0;exitX=0.5;exitY=0;exitDx=0;exitDy=0;exitPerimeter=0;entryX=1;entryY=0.75;entryDx=0;entryDy=0;" parent="J2IZI90gLwu79yyHSFu_-3" source="EbB28qM2xZXy4Wt4z2bn-26" target="EbB28qM2xZXy4Wt4z2bn-72" edge="1">
          <mxGeometry width="50" height="50" relative="1" as="geometry">
            <mxPoint x="250" y="163.82999999999998" as="sourcePoint" />
            <mxPoint x="300" y="113.82999999999998" as="targetPoint" />
            <Array as="points">
              <mxPoint x="210" y="91.82999999999998" />
            </Array>
          </mxGeometry>
        </mxCell>
        <mxCell id="5VZIaHE-p4TpiVT1mcfH-2" value="" style="endArrow=none;dashed=1;html=1;dashPattern=1 3;strokeWidth=2;rounded=0;exitX=0.5;exitY=0;exitDx=0;exitDy=0;exitPerimeter=0;entryX=1;entryY=0.5;entryDx=0;entryDy=0;" parent="J2IZI90gLwu79yyHSFu_-3" source="2Ds7E1dafqhTQAd6MZnV-1" target="EbB28qM2xZXy4Wt4z2bn-70" edge="1">
          <mxGeometry width="50" height="50" relative="1" as="geometry">
            <mxPoint x="290" y="133.82999999999998" as="sourcePoint" />
            <mxPoint x="340" y="73.82999999999998" as="targetPoint" />
            <Array as="points">
              <mxPoint x="270" y="133.82999999999998" />
            </Array>
          </mxGeometry>
        </mxCell>
        <mxCell id="3MHTrsZc-C3pb_CfPNLa-15" value="Default VPC&lt;div&gt;&lt;br&gt;&lt;/div&gt;" style="points=[[0,0],[0.25,0],[0.5,0],[0.75,0],[1,0],[1,0.25],[1,0.5],[1,0.75],[1,1],[0.75,1],[0.5,1],[0.25,1],[0,1],[0,0.75],[0,0.5],[0,0.25]];outlineConnect=0;gradientColor=none;html=1;whiteSpace=wrap;fontSize=12;fontStyle=0;container=1;pointerEvents=0;collapsible=0;recursiveResize=0;shape=mxgraph.aws4.group;grIcon=mxgraph.aws4.group_vpc2;strokeColor=#8C4FFF;fillColor=none;verticalAlign=top;align=left;spacingLeft=30;fontColor=#AAB7B8;dashed=0;" parent="1" vertex="1">
          <mxGeometry x="10" y="-265.75" width="190" height="125.75" as="geometry" />
        </mxCell>
        <mxCell id="3MHTrsZc-C3pb_CfPNLa-16" value="" style="outlineConnect=0;dashed=0;verticalLabelPosition=bottom;verticalAlign=top;align=center;html=1;shape=mxgraph.aws3.ec2;fillColor=#F58534;gradientColor=none;" parent="3MHTrsZc-C3pb_CfPNLa-15" vertex="1">
          <mxGeometry x="8.5" y="30" width="40" height="40" as="geometry" />
        </mxCell>
        <mxCell id="3MHTrsZc-C3pb_CfPNLa-17" value="Jenkins" style="text;html=1;align=center;verticalAlign=middle;whiteSpace=wrap;rounded=0;" parent="3MHTrsZc-C3pb_CfPNLa-15" vertex="1">
          <mxGeometry x="91.5" y="35" width="60" height="30" as="geometry" />
        </mxCell>
        <mxCell id="3MHTrsZc-C3pb_CfPNLa-32" value="" style="outlineConnect=0;dashed=0;verticalLabelPosition=bottom;verticalAlign=top;align=center;html=1;shape=mxgraph.aws3.ec2;fillColor=#F58534;gradientColor=none;" parent="3MHTrsZc-C3pb_CfPNLa-15" vertex="1">
          <mxGeometry x="8.5" y="80" width="43" height="40" as="geometry" />
        </mxCell>
        <mxCell id="3MHTrsZc-C3pb_CfPNLa-35" value="Workstation (Ansible&lt;span style=&quot;background-color: initial;&quot;&gt;)&lt;/span&gt;" style="text;html=1;align=center;verticalAlign=middle;whiteSpace=wrap;rounded=0;" parent="3MHTrsZc-C3pb_CfPNLa-15" vertex="1">
          <mxGeometry x="61.5" y="85" width="120" height="30" as="geometry" />
        </mxCell>
        <mxCell id="3MHTrsZc-C3pb_CfPNLa-31" value="Main App Infrastructure" style="text;html=1;align=center;verticalAlign=middle;whiteSpace=wrap;rounded=0;" parent="1" vertex="1">
          <mxGeometry x="465.5" y="-490" width="130" height="30" as="geometry" />
        </mxCell>
        <mxCell id="2Ds7E1dafqhTQAd6MZnV-5" style="edgeStyle=none;curved=1;rounded=0;orthogonalLoop=1;jettySize=auto;html=1;exitX=1;exitY=1;exitDx=0;exitDy=0;fontSize=12;startSize=8;endSize=8;" parent="1" source="J2IZI90gLwu79yyHSFu_-3" target="J2IZI90gLwu79yyHSFu_-3" edge="1">
          <mxGeometry relative="1" as="geometry" />
        </mxCell>
        <mxCell id="2Ds7E1dafqhTQAd6MZnV-6" value="Infrastructure provisioning" style="text;html=1;align=center;verticalAlign=middle;whiteSpace=wrap;rounded=0;" parent="1" vertex="1">
          <mxGeometry x="28.619999999999997" y="-490" width="162.75" height="30" as="geometry" />
        </mxCell>
        <mxCell id="3MHTrsZc-C3pb_CfPNLa-20" value="" style="outlineConnect=0;dashed=0;verticalLabelPosition=bottom;verticalAlign=top;align=center;html=1;shape=mxgraph.aws3.internet_gateway;fillColor=#F58534;gradientColor=none;" parent="1" vertex="1">
          <mxGeometry x="90.5" y="-295.75" width="39" height="40" as="geometry" />
        </mxCell>
        <mxCell id="J2IZI90gLwu79yyHSFu_-6" value="" style="outlineConnect=0;dashed=0;verticalLabelPosition=bottom;verticalAlign=top;align=center;html=1;shape=mxgraph.aws3.internet_gateway;fillColor=#F58534;gradientColor=none;" parent="1" vertex="1">
          <mxGeometry x="505.5" y="-393.83" width="50" height="50" as="geometry" />
        </mxCell>
        <mxCell id="EbB28qM2xZXy4Wt4z2bn-33" value="" style="image;aspect=fixed;perimeter=ellipsePerimeter;html=1;align=center;shadow=0;dashed=0;spacingTop=3;image=img/lib/active_directory/internet_cloud.svg;" parent="1" vertex="1">
          <mxGeometry x="610" y="-451.5" width="50" height="31.5" as="geometry" />
        </mxCell>
        <mxCell id="EbB28qM2xZXy4Wt4z2bn-34" value="" style="endArrow=none;dashed=1;html=1;rounded=0;entryX=0.5;entryY=1;entryDx=0;entryDy=0;" parent="1" source="J2IZI90gLwu79yyHSFu_-6" target="EbB28qM2xZXy4Wt4z2bn-33" edge="1">
          <mxGeometry width="50" height="50" relative="1" as="geometry">
            <mxPoint x="451" y="-413.83" as="sourcePoint" />
            <mxPoint x="501" y="-463.83" as="targetPoint" />
            <Array as="points">
              <mxPoint x="635" y="-370" />
            </Array>
          </mxGeometry>
        </mxCell>
        <mxCell id="EbB28qM2xZXy4Wt4z2bn-35" value="" style="image;sketch=0;aspect=fixed;html=1;points=[];align=center;fontSize=12;image=img/lib/mscae/Docker.svg;" parent="1" vertex="1">
          <mxGeometry x="577.61" y="19.000000000000004" width="50" height="41" as="geometry" />
        </mxCell>
        <mxCell id="EbB28qM2xZXy4Wt4z2bn-39" value="" style="verticalLabelPosition=bottom;html=1;verticalAlign=top;align=center;strokeColor=none;fillColor=#00BEF2;shape=mxgraph.azure.github_code;pointerEvents=1;" parent="1" vertex="1">
          <mxGeometry x="425.5" y="-457.66" width="34.5" height="37.66" as="geometry" />
        </mxCell>
        <mxCell id="EbB28qM2xZXy4Wt4z2bn-41" value="" style="endArrow=none;dashed=1;html=1;dashPattern=1 3;strokeWidth=2;rounded=0;exitX=0;exitY=0.5;exitDx=0;exitDy=0;exitPerimeter=0;entryX=0.5;entryY=1;entryDx=0;entryDy=0;entryPerimeter=0;" parent="1" source="J2IZI90gLwu79yyHSFu_-6" target="EbB28qM2xZXy4Wt4z2bn-39" edge="1">
          <mxGeometry width="50" height="50" relative="1" as="geometry">
            <mxPoint x="470" y="-390" as="sourcePoint" />
            <mxPoint x="439" y="-411" as="targetPoint" />
            <Array as="points">
              <mxPoint x="443" y="-370" />
            </Array>
          </mxGeometry>
        </mxCell>
        <mxCell id="EbB28qM2xZXy4Wt4z2bn-49" value="" style="verticalLabelPosition=bottom;html=1;verticalAlign=top;align=center;strokeColor=none;fillColor=#00BEF2;shape=mxgraph.azure.github_code;pointerEvents=1;" parent="1" vertex="1">
          <mxGeometry x="92.75" y="-457.66" width="34.5" height="37.66" as="geometry" />
        </mxCell>
        <mxCell id="EbB28qM2xZXy4Wt4z2bn-50" value="" style="endArrow=none;dashed=1;html=1;dashPattern=1 3;strokeWidth=2;rounded=0;exitX=0.5;exitY=1;exitDx=0;exitDy=0;exitPerimeter=0;entryX=0.5;entryY=0;entryDx=0;entryDy=0;entryPerimeter=0;" parent="1" source="EbB28qM2xZXy4Wt4z2bn-49" target="3MHTrsZc-C3pb_CfPNLa-20" edge="1">
          <mxGeometry width="50" height="50" relative="1" as="geometry">
            <mxPoint x="300" y="-290" as="sourcePoint" />
            <mxPoint x="350" y="-340" as="targetPoint" />
          </mxGeometry>
        </mxCell>
        <mxCell id="EbB28qM2xZXy4Wt4z2bn-63" value="" style="endArrow=none;dashed=1;html=1;dashPattern=1 3;strokeWidth=2;rounded=0;exitX=0.5;exitY=1;exitDx=0;exitDy=0;exitPerimeter=0;entryX=0.5;entryY=0;entryDx=0;entryDy=0;" parent="1" source="3MHTrsZc-C3pb_CfPNLa-20" target="3MHTrsZc-C3pb_CfPNLa-17" edge="1">
          <mxGeometry width="50" height="50" relative="1" as="geometry">
            <mxPoint x="300" y="-216.17" as="sourcePoint" />
            <mxPoint x="270" y="-276.17" as="targetPoint" />
            <Array as="points">
              <mxPoint x="110" y="-246.17" />
              <mxPoint x="132" y="-246.17" />
            </Array>
          </mxGeometry>
        </mxCell>
        <mxCell id="EbB28qM2xZXy4Wt4z2bn-64" value="" style="endArrow=none;dashed=1;html=1;dashPattern=1 3;strokeWidth=2;rounded=0;exitX=1;exitY=0.5;exitDx=0;exitDy=0;" parent="1" source="3MHTrsZc-C3pb_CfPNLa-17" target="J2IZI90gLwu79yyHSFu_-3" edge="1">
          <mxGeometry width="50" height="50" relative="1" as="geometry">
            <mxPoint x="300" y="-210" as="sourcePoint" />
            <mxPoint x="255" y="-213.82999999999993" as="targetPoint" />
            <Array as="points">
              <mxPoint x="230" y="-216" />
              <mxPoint x="250" y="-199" />
            </Array>
          </mxGeometry>
        </mxCell>
        <mxCell id="EbB28qM2xZXy4Wt4z2bn-68" value="" style="endArrow=none;dashed=1;html=1;dashPattern=1 3;strokeWidth=2;rounded=0;exitX=1;exitY=0.5;exitDx=0;exitDy=0;entryX=0;entryY=0.5;entryDx=0;entryDy=0;" parent="1" source="3MHTrsZc-C3pb_CfPNLa-35" target="J2IZI90gLwu79yyHSFu_-3" edge="1">
          <mxGeometry width="50" height="50" relative="1" as="geometry">
            <mxPoint x="172" y="-206" as="sourcePoint" />
            <mxPoint x="237.25" y="-170.2249999999999" as="targetPoint" />
            <Array as="points">
              <mxPoint x="230" y="-166" />
              <mxPoint x="250" y="-200" />
            </Array>
          </mxGeometry>
        </mxCell>
        <mxCell id="EbB28qM2xZXy4Wt4z2bn-77" value="" style="endArrow=none;dashed=1;html=1;rounded=0;entryX=0.5;entryY=1;entryDx=0;entryDy=0;entryPerimeter=0;exitX=1;exitY=0.5;exitDx=0;exitDy=0;exitPerimeter=0;" parent="1" source="2Ds7E1dafqhTQAd6MZnV-1" target="J2IZI90gLwu79yyHSFu_-6" edge="1">
          <mxGeometry width="50" height="50" relative="1" as="geometry">
            <mxPoint x="550" y="-200" as="sourcePoint" />
            <mxPoint x="600" y="-250" as="targetPoint" />
            <Array as="points">
              <mxPoint x="630" y="-200" />
              <mxPoint x="630" y="-344" />
            </Array>
          </mxGeometry>
        </mxCell>
        <mxCell id="EbB28qM2xZXy4Wt4z2bn-82" value="" style="endArrow=none;dashed=1;html=1;rounded=0;entryX=1;entryY=0.5;entryDx=0;entryDy=0;" parent="1" target="EbB28qM2xZXy4Wt4z2bn-23" edge="1">
          <mxGeometry width="50" height="50" relative="1" as="geometry">
            <mxPoint x="560" y="-200" as="sourcePoint" />
            <mxPoint x="600" y="-250" as="targetPoint" />
            <Array as="points">
              <mxPoint x="560" y="-125" />
            </Array>
          </mxGeometry>
        </mxCell>
        <mxCell id="EbB28qM2xZXy4Wt4z2bn-83" value="" style="endArrow=classic;html=1;rounded=0;exitX=0;exitY=0.5;exitDx=0;exitDy=0;exitPerimeter=0;entryX=-0.06;entryY=0.54;entryDx=0;entryDy=0;entryPerimeter=0;" parent="1" source="EbB28qM2xZXy4Wt4z2bn-69" target="EbB28qM2xZXy4Wt4z2bn-35" edge="1">
          <mxGeometry width="50" height="50" relative="1" as="geometry">
            <mxPoint x="550" y="-200" as="sourcePoint" />
            <mxPoint x="600" y="-250" as="targetPoint" />
            <Array as="points">
              <mxPoint x="310" y="-230" />
              <mxPoint x="310" y="40" />
            </Array>
          </mxGeometry>
        </mxCell>
        <mxCell id="5VZIaHE-p4TpiVT1mcfH-1" value="" style="endArrow=none;dashed=1;html=1;dashPattern=1 3;strokeWidth=2;rounded=0;exitX=0.855;exitY=0.855;exitDx=0;exitDy=0;exitPerimeter=0;entryX=0.855;entryY=0.855;entryDx=0;entryDy=0;entryPerimeter=0;" parent="1" source="J2IZI90gLwu79yyHSFu_-6" target="2Ds7E1dafqhTQAd6MZnV-1" edge="1">
          <mxGeometry width="50" height="50" relative="1" as="geometry">
            <mxPoint x="590" y="-240" as="sourcePoint" />
            <mxPoint x="640" y="-290" as="targetPoint" />
            <Array as="points">
              <mxPoint x="640" y="-351" />
              <mxPoint x="640" y="-181" />
            </Array>
          </mxGeometry>
        </mxCell>
        <mxCell id="DaRObmyiOYjj1bPcYYDU-2" value="" style="endArrow=none;dashed=1;html=1;dashPattern=1 3;strokeWidth=2;rounded=0;entryX=0.5;entryY=1;entryDx=0;entryDy=0;" edge="1" parent="1" target="3MHTrsZc-C3pb_CfPNLa-35">
          <mxGeometry width="50" height="50" relative="1" as="geometry">
            <mxPoint x="131.5000000000001" y="220" as="sourcePoint" />
            <mxPoint x="520" y="-240" as="targetPoint" />
            <Array as="points" />
          </mxGeometry>
        </mxCell>
        <mxCell id="DaRObmyiOYjj1bPcYYDU-13" value="&lt;font style=&quot;font-size: 8px;&quot;&gt;Fetch Tags&lt;/font&gt;" style="dashed=0;html=1;rounded=1;fillColor=#FFAB00;strokeColor=#FFAB00;fontSize=12;align=center;fontStyle=1;strokeWidth=2;fontColor=#42526E" vertex="1" parent="1">
          <mxGeometry x="286.38" y="4.5" width="52.41" height="15.5" as="geometry" />
        </mxCell>
        <mxCell id="DaRObmyiOYjj1bPcYYDU-14" value="" style="image;aspect=fixed;html=1;points=[];align=center;fontSize=12;image=img/lib/azure2/general/Tag.svg;" vertex="1" parent="1">
          <mxGeometry x="300" y="-24.73" width="25.18" height="24.73" as="geometry" />
        </mxCell>
        <mxCell id="DaRObmyiOYjj1bPcYYDU-16" value="" style="verticalLabelPosition=bottom;sketch=0;aspect=fixed;html=1;verticalAlign=top;strokeColor=none;align=center;outlineConnect=0;shape=mxgraph.citrix.process;" vertex="1" parent="1">
          <mxGeometry x="503.59000000000003" y="20" width="33.55" height="40" as="geometry" />
        </mxCell>
        <mxCell id="DaRObmyiOYjj1bPcYYDU-17" value="Build" style="dashed=0;html=1;rounded=1;fillColor=#FFAB00;strokeColor=#FFAB00;fontSize=12;align=center;fontStyle=1;strokeWidth=2;fontColor=#42526E" vertex="1" parent="1">
          <mxGeometry x="485.36" y="70" width="70" height="20" as="geometry" />
        </mxCell>
        <mxCell id="DaRObmyiOYjj1bPcYYDU-19" value="Test" style="dashed=0;html=1;rounded=1;fillColor=#FFAB00;strokeColor=#FFAB00;fontSize=12;align=center;fontStyle=1;strokeWidth=2;fontColor=#42526E" vertex="1" parent="1">
          <mxGeometry x="407.61" y="70" width="70" height="20" as="geometry" />
        </mxCell>
        <mxCell id="DaRObmyiOYjj1bPcYYDU-20" value="" style="sketch=0;html=1;aspect=fixed;strokeColor=none;shadow=0;fillColor=#3B8DF1;verticalAlign=top;labelPosition=center;verticalLabelPosition=bottom;shape=mxgraph.gcp2.biomedical_test_tube" vertex="1" parent="1">
          <mxGeometry x="435.46000000000004" y="13.87" width="14.3" height="46.13" as="geometry" />
        </mxCell>
        <mxCell id="DaRObmyiOYjj1bPcYYDU-21" value="Semantic&lt;div&gt;Check&lt;/div&gt;" style="dashed=0;html=1;rounded=1;fillColor=#FFAB00;strokeColor=#FFAB00;fontSize=12;align=center;fontStyle=1;strokeWidth=2;fontColor=#42526E" vertex="1" parent="1">
          <mxGeometry x="325.36" y="70" width="70" height="40" as="geometry" />
        </mxCell>
        <mxCell id="DaRObmyiOYjj1bPcYYDU-23" value="" style="sketch=0;html=1;aspect=fixed;strokeColor=none;shadow=0;fillColor=#3B8DF1;verticalAlign=top;labelPosition=center;verticalLabelPosition=bottom;shape=mxgraph.gcp2.check" vertex="1" parent="1">
          <mxGeometry x="340.11" y="25" width="37.5" height="30" as="geometry" />
        </mxCell>
        <mxCell id="DaRObmyiOYjj1bPcYYDU-24" value="Push" style="dashed=0;html=1;rounded=1;fillColor=#FFAB00;strokeColor=#FFAB00;fontSize=12;align=center;fontStyle=1;strokeWidth=2;fontColor=#42526E" vertex="1" parent="1">
          <mxGeometry x="567.61" y="70" width="70" height="20" as="geometry" />
        </mxCell>
        <mxCell id="DaRObmyiOYjj1bPcYYDU-25" value="Merge Request" style="text;html=1;align=center;verticalAlign=middle;whiteSpace=wrap;rounded=0;" vertex="1" parent="1">
          <mxGeometry x="240" y="25" width="80" height="30" as="geometry" />
        </mxCell>
        <mxCell id="DaRObmyiOYjj1bPcYYDU-27" value="" style="endArrow=classic;html=1;rounded=0;entryX=0.017;entryY=0.485;entryDx=0;entryDy=0;entryPerimeter=0;" edge="1" parent="1" target="DaRObmyiOYjj1bPcYYDU-30">
          <mxGeometry width="50" height="50" relative="1" as="geometry">
            <mxPoint x="310" y="40" as="sourcePoint" />
            <mxPoint x="160" y="236" as="targetPoint" />
            <Array as="points">
              <mxPoint x="310" y="160" />
              <mxPoint x="500" y="161" />
            </Array>
          </mxGeometry>
        </mxCell>
        <mxCell id="DaRObmyiOYjj1bPcYYDU-28" value="Main&amp;nbsp;&lt;div&gt;Branch&lt;/div&gt;" style="text;html=1;align=center;verticalAlign=middle;whiteSpace=wrap;rounded=0;" vertex="1" parent="1">
          <mxGeometry x="240" y="146" width="80" height="30" as="geometry" />
        </mxCell>
        <mxCell id="DaRObmyiOYjj1bPcYYDU-30" value="" style="image;sketch=0;aspect=fixed;html=1;points=[];align=center;fontSize=12;image=img/lib/mscae/Docker.svg;" vertex="1" parent="1">
          <mxGeometry x="577.61" y="141" width="50" height="41" as="geometry" />
        </mxCell>
        <mxCell id="DaRObmyiOYjj1bPcYYDU-31" value="Push" style="dashed=0;html=1;rounded=1;fillColor=#FFAB00;strokeColor=#FFAB00;fontSize=12;align=center;fontStyle=1;strokeWidth=2;fontColor=#42526E" vertex="1" parent="1">
          <mxGeometry x="567.61" y="192" width="70" height="20" as="geometry" />
        </mxCell>
        <mxCell id="DaRObmyiOYjj1bPcYYDU-32" value="Tag Image" style="dashed=0;html=1;rounded=1;fillColor=#FFAB00;strokeColor=#FFAB00;fontSize=12;align=center;fontStyle=1;strokeWidth=2;fontColor=#42526E" vertex="1" parent="1">
          <mxGeometry x="325.36" y="190" width="70" height="20" as="geometry" />
        </mxCell>
        <mxCell id="DaRObmyiOYjj1bPcYYDU-33" value="" style="image;aspect=fixed;html=1;points=[];align=center;fontSize=12;image=img/lib/azure2/general/Tag.svg;" vertex="1" parent="1">
          <mxGeometry x="340" y="140" width="40.72" height="40" as="geometry" />
        </mxCell>
        <mxCell id="DaRObmyiOYjj1bPcYYDU-39" value="" style="verticalLabelPosition=bottom;sketch=0;aspect=fixed;html=1;verticalAlign=top;strokeColor=none;align=center;outlineConnect=0;shape=mxgraph.citrix.process;" vertex="1" parent="1">
          <mxGeometry x="425.84000000000003" y="140" width="33.55" height="40" as="geometry" />
        </mxCell>
        <mxCell id="DaRObmyiOYjj1bPcYYDU-40" value="Build" style="dashed=0;html=1;rounded=1;fillColor=#FFAB00;strokeColor=#FFAB00;fontSize=12;align=center;fontStyle=1;strokeWidth=2;fontColor=#42526E" vertex="1" parent="1">
          <mxGeometry x="407.61" y="190" width="70" height="20" as="geometry" />
        </mxCell>
        <mxCell id="DaRObmyiOYjj1bPcYYDU-41" value="" style="outlineConnect=0;dashed=0;verticalLabelPosition=bottom;verticalAlign=top;align=center;html=1;shape=mxgraph.aws3.artifact;fillColor=#759C3E;gradientColor=none;" vertex="1" parent="1">
          <mxGeometry x="500.37" y="141" width="40" height="40" as="geometry" />
        </mxCell>
        <mxCell id="DaRObmyiOYjj1bPcYYDU-42" value="Save&lt;div&gt;artifact&lt;/div&gt;" style="dashed=0;html=1;rounded=1;fillColor=#FFAB00;strokeColor=#FFAB00;fontSize=12;align=center;fontStyle=1;strokeWidth=2;fontColor=#42526E" vertex="1" parent="1">
          <mxGeometry x="485.5" y="191" width="70" height="39" as="geometry" />
        </mxCell>
        <mxCell id="DaRObmyiOYjj1bPcYYDU-47" value="" style="sketch=0;outlineConnect=0;fontColor=#232F3E;gradientColor=none;fillColor=#232F3D;strokeColor=none;dashed=0;verticalLabelPosition=bottom;verticalAlign=top;align=center;html=1;fontSize=12;fontStyle=0;aspect=fixed;pointerEvents=1;shape=mxgraph.aws4.user;" vertex="1" parent="1">
          <mxGeometry x="24.5" y="-457.6600000000001" width="31" height="31" as="geometry" />
        </mxCell>
        <mxCell id="DaRObmyiOYjj1bPcYYDU-48" value="SSH" style="text;html=1;align=center;verticalAlign=middle;whiteSpace=wrap;rounded=0;" vertex="1" parent="1">
          <mxGeometry x="10" y="-426.66" width="60" height="30" as="geometry" />
        </mxCell>
        <mxCell id="DaRObmyiOYjj1bPcYYDU-49" value="" style="endArrow=none;dashed=1;html=1;dashPattern=1 3;strokeWidth=2;rounded=0;exitX=0.5;exitY=1;exitDx=0;exitDy=0;entryX=0.5;entryY=0;entryDx=0;entryDy=0;" edge="1" parent="1" source="DaRObmyiOYjj1bPcYYDU-48" target="3MHTrsZc-C3pb_CfPNLa-35">
          <mxGeometry width="50" height="50" relative="1" as="geometry">
            <mxPoint x="280" y="-410" as="sourcePoint" />
            <mxPoint x="330" y="-460" as="targetPoint" />
            <Array as="points">
              <mxPoint x="40" y="-320" />
              <mxPoint x="80" y="-320" />
              <mxPoint x="80" y="-200" />
              <mxPoint x="132" y="-200" />
            </Array>
          </mxGeometry>
        </mxCell>
        <mxCell id="DaRObmyiOYjj1bPcYYDU-50" value="" style="endArrow=classic;html=1;rounded=0;" edge="1" parent="1">
          <mxGeometry width="50" height="50" relative="1" as="geometry">
            <mxPoint x="310" y="160" as="sourcePoint" />
            <mxPoint x="170" y="240" as="targetPoint" />
            <Array as="points">
              <mxPoint x="310" y="240" />
            </Array>
          </mxGeometry>
        </mxCell>
        <mxCell id="DaRObmyiOYjj1bPcYYDU-52" value="Deploy" style="text;html=1;align=center;verticalAlign=middle;whiteSpace=wrap;rounded=0;" vertex="1" parent="1">
          <mxGeometry x="250" y="210" width="60" height="30" as="geometry" />
        </mxCell>
        <mxCell id="DaRObmyiOYjj1bPcYYDU-53" value="" style="image;aspect=fixed;html=1;points=[];align=center;fontSize=12;image=img/lib/azure2/other/SSH_Keys.svg;" vertex="1" parent="1">
          <mxGeometry x="100" y="210" width="56.67" height="50" as="geometry" />
        </mxCell>
        <mxCell id="DaRObmyiOYjj1bPcYYDU-54" value="SSH" style="dashed=0;html=1;rounded=1;fillColor=#FFAB00;strokeColor=#FFAB00;fontSize=12;align=center;fontStyle=1;strokeWidth=2;fontColor=#42526E" vertex="1" parent="1">
          <mxGeometry x="93.33" y="270" width="70" height="20" as="geometry" />
        </mxCell>
      </root>
    </mxGraphModel>
  </diagram>
</mxfile>
